<?xml version="1.0" encoding="UTF-8"?>
<svg width="40px" height="40px" viewBox="0 0 40 40" version="1.1" xmlns="http://www.w3.org/2000/svg" xmlns:xlink="http://www.w3.org/1999/xlink">
    <!-- Generator: Sketch 64 (93537) - https://sketch.com -->
    <title>cycle</title>
    <desc>Created with Sketch.</desc>
    <g id="Page-1" stroke="none" stroke-width="1" fill="none" fill-rule="evenodd">
        <path d="M21.28,8.2 C21.4133333,8.2 21.5266667,8.16 21.62,8.08 C21.7133333,8 21.76,7.89333333 21.76,7.76 L21.76,0.44 C21.76,0.306666667 21.7133333,0.2 21.62,0.12 C21.5266667,0.04 21.4133333,0 21.28,0 L18.48,0 C18.3733333,0 18.2733333,0.04 18.18,0.12 C18.0866667,0.2 18.04,0.306666667 18.04,0.44 L18.04,7.76 C18.04,7.86666667 18.0866667,7.96666667 18.18,8.06 C18.2733333,8.15333333 18.3733333,8.2 18.48,8.2 L21.28,8.2 Z M27.36,10.48 C27.4933333,10.4533333 27.5866667,10.3866667 27.64,10.28 L31.28,3.96 C31.3333333,3.82666667 31.3466667,3.7 31.32,3.58 C31.2933333,3.46 31.2266667,3.37333333 31.12,3.32 L28.68,1.92 C28.6533333,1.89333333 28.5866667,1.88 28.48,1.88 C28.32,1.85333333 28.1866667,1.92 28.08,2.08 L24.44,8.4 C24.36,8.50666667 24.3333333,8.62666667 24.36,8.76 C24.3866667,8.89333333 24.4666667,8.98666667 24.6,9.04 L27,10.4 L27,10.44 C27.1066667,10.4933333 27.2266667,10.5066667 27.36,10.48 Z M12.8,10.56 L15.24,9.16 C15.3466667,9.08 15.4133333,8.98 15.44,8.86 C15.4666667,8.74 15.4533333,8.62666667 15.4,8.52 L11.76,2.24 L11.76,2.2 C11.68,2.04 11.5466667,1.96 11.36,1.96 C11.3066667,1.96 11.2266667,1.98666667 11.12,2.04 L8.68,3.44 C8.57333333,3.49333333 8.50666667,3.58666667 8.48,3.72 C8.45333333,3.85333333 8.46666667,3.97333333 8.52,4.08 L12.16,10.36 L12.16,10.36 C12.2133333,10.4666667 12.3,10.54 12.42,10.58 C12.54,10.62 12.6666667,10.6133333 12.8,10.56 Z M31.48,15.4 L37.76,11.76 L37.8,11.76 C37.9066667,11.7066667 37.9733333,11.6133333 38,11.48 C38.0266667,11.3466667 38.0133333,11.2266667 37.96,11.12 L36.56,8.68 C36.48,8.49333333 36.3466667,8.42666667 36.16,8.48 C36.0533333,8.48 35.9733333,8.49333333 35.92,8.52 L29.64,12.16 L29.64,12.16 C29.5333333,12.2133333 29.46,12.3 29.42,12.42 C29.38,12.54 29.3866667,12.6666667 29.44,12.8 L30.84,15.24 C30.92,15.3466667 31.02,15.4133333 31.14,15.44 C31.26,15.4666667 31.3733333,15.4533333 31.48,15.4 Z M8.76,15.64 C8.89333333,15.6133333 8.98666667,15.5333333 9.04,15.4 L10.44,13 L10.44,13 C10.4933333,12.8933333 10.5066667,12.7733333 10.48,12.64 C10.4533333,12.5066667 10.3866667,12.4133333 10.28,12.36 L3.96,8.72 C3.85333333,8.66666667 3.78666667,8.64 3.76,8.64 C3.54666667,8.64 3.4,8.72 3.32,8.88 L1.92,11.32 C1.86666667,11.4266667 1.85333333,11.54 1.88,11.66 C1.90666667,11.78 1.97333333,11.8666667 2.08,11.92 L8.4,15.56 C8.50666667,15.64 8.62666667,15.6666667 8.76,15.64 Z M39.56,21.76 C39.6933333,21.76 39.8,21.7133333 39.88,21.62 C39.96,21.5266667 40,21.4133333 40,21.28 L40,18.48 C40,18.3466667 39.96,18.24 39.88,18.16 C39.8,18.08 39.6933333,18.04 39.56,18.04 L32.24,18.04 C32.1333333,18.04 32.0333333,18.08 31.94,18.16 C31.8466667,18.24 31.8,18.3466667 31.8,18.48 L31.8,21.28 C31.8,21.4133333 31.84,21.5266667 31.92,21.62 C32,21.7133333 32.1066667,21.76 32.24,21.76 L39.56,21.76 Z M7.76,21.96 C7.89333333,21.96 8,21.9133333 8.08,21.82 C8.16,21.7266667 8.2,21.6266667 8.2,21.52 L8.2,18.72 C8.2,18.5866667 8.16,18.4733333 8.08,18.38 C8,18.2866667 7.89333333,18.24 7.76,18.24 L0.48,18.24 C0.346666667,18.24 0.233333333,18.2866667 0.14,18.38 C0.0466666667,18.4733333 0,18.5866667 0,18.72 L0,21.52 C0,21.6533333 0.0466666667,21.76 0.14,21.84 C0.233333333,21.92 0.346666667,21.96 0.48,21.96 L7.76,21.96 Z M36.4,31.32 C36.5333333,31.2933333 36.6266667,31.2266667 36.68,31.12 L38.08,28.68 C38.1333333,28.5733333 38.1466667,28.46 38.12,28.34 C38.0933333,28.22 38.0266667,28.1333333 37.92,28.08 L31.6,24.4 C31.5466667,24.3733333 31.4666667,24.36 31.36,24.36 C31.1733333,24.36 31.04,24.44 30.96,24.6 L29.6,27 L29.56,27 C29.5066667,27.1066667 29.4933333,27.2266667 29.52,27.36 C29.5466667,27.4933333 29.6133333,27.5866667 29.72,27.64 L36.04,31.28 C36.1466667,31.3333333 36.2666667,31.3466667 36.4,31.32 Z M4.08,31.48 L10.36,27.84 L10.36,27.84 C10.4666667,27.7866667 10.54,27.7 10.58,27.58 C10.62,27.46 10.6133333,27.3333333 10.56,27.2 L9.16,24.76 C9,24.6 8.85333333,24.5333333 8.72,24.56 C8.64,24.56 8.57333333,24.5733333 8.52,24.6 L2.24,28.24 L2.2,28.24 C2.09333333,28.2933333 2.02666667,28.3866667 2,28.52 C1.97333333,28.6533333 1.98666667,28.7733333 2.04,28.88 L3.44,31.32 C3.49333333,31.4266667 3.58666667,31.4933333 3.72,31.52 C3.85333333,31.5466667 3.97333333,31.5333333 4.08,31.48 Z M28.88,37.96 L31.32,36.56 C31.4266667,36.5066667 31.4933333,36.4133333 31.52,36.28 C31.5466667,36.1466667 31.5333333,36.0266667 31.48,35.92 L27.84,29.64 L27.84,29.64 C27.76,29.48 27.6266667,29.4 27.44,29.4 C27.3333333,29.4 27.2533333,29.4133333 27.2,29.44 L24.76,30.84 C24.6533333,30.92 24.5866667,31.02 24.56,31.14 C24.5333333,31.26 24.5466667,31.3733333 24.6,31.48 L28.24,37.76 L28.24,37.8 C28.2933333,37.9066667 28.3866667,37.9733333 28.52,38 C28.6533333,38.0266667 28.7733333,38.0133333 28.88,37.96 Z M11.66,38.12 C11.78,38.0933333 11.8666667,38.0266667 11.92,37.92 L15.6,31.6 C15.6533333,31.4666667 15.66,31.34 15.62,31.22 C15.58,31.1 15.5066667,31.0133333 15.4,30.96 L13,29.56 L13,29.56 L12.76,29.48 C12.5733333,29.48 12.44,29.56 12.36,29.72 L8.72,36.04 C8.66666667,36.1466667 8.65333333,36.2666667 8.68,36.4 C8.70666667,36.5333333 8.77333333,36.6266667 8.88,36.68 L11.32,38.08 C11.4266667,38.1333333 11.54,38.1466667 11.66,38.12 Z M21.52,40 C21.6533333,40 21.76,39.9533333 21.84,39.86 C21.92,39.7666667 21.96,39.6666667 21.96,39.56 L21.96,32.24 C21.96,32.1066667 21.92,32 21.84,31.92 C21.76,31.84 21.6533333,31.8 21.52,31.8 L18.72,31.8 C18.5866667,31.8 18.4733333,31.84 18.38,31.92 C18.2866667,32 18.24,32.1066667 18.24,32.24 L18.24,39.56 C18.24,39.6933333 18.2866667,39.8 18.38,39.88 C18.4733333,39.96 18.5866667,40 18.72,40 L21.52,40 Z" id="cycle" fill="#000000" fill-rule="nonzero"></path>
    </g>
</svg>