<svg xmlns="http://www.w3.org/2000/svg" viewBox="-3.5762786865234375e-7 -0.000008605156835983507 63.97063064575195 86.13850402832031" fill="none" preserveAspectRatio="xMidYMid meet">
<path fill-rule="evenodd" clip-rule="evenodd" d="M9.6853 86.1382C9.99854 86.1382 10.3898 86.1382 10.7433 86.1382H53.4902C61.9477 86.1382 66.91 76.929 62.0696 70.2161L43.8197 44.9059C42.7139 43.3723 42.575 41.375 43.4164 39.7363C38.7249 46.1832 34.0418 52.6506 29.3507 59.0992C22.8042 68.0981 16.2374 77.1375 9.6853 86.1382Z" fill="url(#87f83307-36d5-4832-8c8e-8b3cb18dbb37)"></path>
<path fill-rule="evenodd" clip-rule="evenodd" d="M54.2854 2.35665e-05C53.9722 -4.20426e-05 53.5809 1.30184e-05 53.2274 1.29877e-05L10.4805 9.27503e-06C2.023 8.54049e-06 -2.93925 9.20919 1.9011 15.9221L20.151 41.2323C21.2568 42.7659 21.3957 44.7632 20.5543 46.4019C25.2458 39.955 29.9289 33.4875 34.62 27.039C41.1665 18.04 47.7333 9.00072 54.2854 2.35665e-05Z" fill="url(#43020642-6b8b-4a63-b2e2-b0ea3a59813f)"></path>
<path fill-rule="evenodd" clip-rule="evenodd" d="M54.0451 0C47.3557 9.01492 40.671 18.0294 33.9872 27.0426C23.3181 41.4301 12.6516 55.8142 1.97252 70.191C-2.80441 76.622 1.62182 85.3848 9.6002 86.1385C16.2893 77.124 22.9738 68.1099 29.6572 59.0972C40.3266 44.7092 50.9934 30.3247 61.6728 15.9475C66.4497 9.51652 62.0235 0.753717 54.0451 0Z" fill="#FFDD87"></path>
<defs>
<linearGradient id="87f83307-36d5-4832-8c8e-8b3cb18dbb37" x1="63.9707" y1="83.6182" x2="19.9845" y2="39.5732" gradientUnits="userSpaceOnUse">
<stop stop-color="#2965FF"></stop>
<stop offset="1" stop-color="#2519AB"></stop>
</linearGradient>
<linearGradient id="43020642-6b8b-4a63-b2e2-b0ea3a59813f" x1="4.80525e-05" y1="2.52003" x2="43.9862" y2="46.565" gradientUnits="userSpaceOnUse">
<stop stop-color="#2965FF"></stop>
<stop offset="1" stop-color="#2519AB"></stop>
</linearGradient>
</defs>
</svg>
